<svg xmlns="http://www.w3.org/2000/svg" viewBox="0 0 100 100">
  <defs>
    <linearGradient id="grad" x1="0%" y1="0%" x2="100%" y2="100%">
      <stop offset="0%" style="stop-color:#1a1a1a"/>
      <stop offset="100%" style="stop-color:#000000"/>
    </linearGradient>
  </defs>
  <path d="M25 20 C25 15 35 12 45 15 L75 25 C85 27 90 35 90 45 L90 55 C90 65 85 73 75 75 L45 85 C35 88 25 85 25 80 L25 50 L50 35 L25 20 Z" fill="url(#grad)"/>
  <ellipse cx="35" cy="28" rx="8" ry="5" fill="rgba(255,255,255,0.3)" transform="rotate(-30 35 28)"/>
  <circle cx="80" cy="40" r="4" fill="#ffffff"/>
  <circle cx="75" cy="45" r="3" fill="#ffffff"/>
  <circle cx="82" cy="47" r="3" fill="#ffffff"/>
  <circle cx="78" cy="52" r="3" fill="#ffffff"/>
  <circle cx="85" cy="50" r="3" fill="#ffffff"/>
</svg>